<?xml version="1.0" standalone="no"?>
<!DOCTYPE svg PUBLIC "-//W3C//DTD SVG 20010904//EN"
 "http://www.w3.org/TR/2001/REC-SVG-20010904/DTD/svg10.dtd">
<svg version="1.0" xmlns="http://www.w3.org/2000/svg"
 width="433.000000pt" height="120.000000pt" viewBox="0 0 433.000000 120.000000"
 preserveAspectRatio="xMidYMid meet">

<g transform="translate(0.000000,120.000000) scale(0.100000,-0.100000)"
fill="#000000" stroke="none">
<path d="M320 1037 c0 -10 13 -14 45 -13 54 1 86 -25 87 -72 3 -95 -112 -126
-154 -42 -17 34 -18 25 -18 -319 0 -345 1 -354 22 -402 l23 -49 1837 0 1838 0
0 262 0 262 -20 -22 c-29 -31 -89 -30 -118 1 -30 32 -29 87 1 115 30 29 89 30
117 2 20 -20 20 -20 20 135 l0 155 -1840 0 c-1535 0 -1840 -2 -1840 -13z
m1799 -237 c58 -26 86 -50 47 -43 -13 3 -37 -2 -55 -11 -33 -17 -46 -50 -38
-92 4 -20 1 -24 -12 -18 -9 3 -32 11 -52 16 -77 21 -174 -34 -203 -115 -8 -23
-15 -34 -15 -25 -1 24 -49 58 -83 58 -17 0 -39 -10 -53 -25 -23 -22 -25 -23
-25 -5 0 34 37 118 69 159 92 116 279 161 420 101z m-644 -15 c29 -28 30 -43
11 -89 -36 -85 -156 -51 -156 45 0 33 44 69 85 69 25 0 44 -8 60 -25z m1040 0
c29 -28 30 -43 11 -89 -36 -85 -156 -51 -156 45 0 33 44 69 85 69 25 0 44 -8
60 -25z"/>
</g>
</svg>
